<svg xmlns="http://www.w3.org/2000/svg" width="110" height="50">
  <!-- CSS style acts as container for the color variable. -->
  <style>
    :root {
      <!-- Default to red. -->
      --dynamic-color: red;
    }
  </style>
    <defs>
    <linearGradient id="windowGradient" x1="0%" y1="0%" x2="0%" y2="100%">
      <stop offset="0%" stop-color="white" />
      <stop offset="200%" stop-color="grey" />
    </linearGradient>
      <linearGradient id="carGradient" x1="0%" y1="70%" x2="0%" y2="150%">
      <stop offset="0%" stop-color="var(--dynamic-color)" />
      <stop offset="100%" stop-color="black" />
    </linearGradient>
    <filter id="blur-filter">
      <feGaussianBlur in="SourceGraphic" stdDeviation="0.4"/>
    </filter>
    <filter id="car-shadow" filterUnits="userSpaceOnUse">
      <feGaussianBlur in="SourceGraphic" stdDeviation="2"/>
    </filter>
  </defs>
  <!-- Shadow on ground under car -->
  <ellipse rx="50" ry="4" cx="55" cy="43" filter="url(#car-shadow)" fill="black"/>
  <!-- Car shape -->
  <path
    d="M 108 35 V 27
       C 108 21 97 16 80 14
       C 64 1 64 1 52 1
       H 17
       L 5 13
       C 2 16 3 13 3 23
       C 0 27 0 35 6 35
       H 108 Z"
    fill="url(#carGradient)"
    stroke="black" stroke-width="1"
    />
    <!-- Windows -->
  <path
    d="M 77 15 
       C 60 3 60 3 46 3
       H 23
       C 12 12 20 13 24 15
       Z
       "
    fill="url(#windowGradient)" 
    stroke="black" stroke-width="1"
    />
  <!-- Window Pillar -->
  <path
    d= "M 48 14.5
        L 46 3.5 H 43 V 14.5 Z"
    fill="#555"
        />
  <!-- Rear Window -->
  <line x1= "5" y1="14.4" x2="17" y2="2.4" stroke="url(#windowGradient)"/>
  <!-- Side mirror -->
  <ellipse rx="2.5" ry="1.5" cx="70" cy="13"
    fill="url(#carGradient)" stroke="black" stroke-width="0.5"/>
  <!-- Wheels. -->
  <symbol id="wheel" viewBox="-9 -9 18 18">
    <circle cx="0" cy="0" r="9" fill="black" />
    <circle cx="0" cy="0" r="6" stroke="grey" stroke-width="1"/>
    <line x1="-6" y1="0" x2="6" y2="0" stroke="grey" stroke-width="1" />
    <line x1="0" y1="-6" x2="0" y2="6" stroke="grey" stroke-width="1" />
    <line x1="-4.24264" y1="-4.24264" x2="4.24264" y2="4.24264" stroke="grey" stroke-width="1"/>
    <line x1="-4.24264" y1="4.24264" x2="4.24264" y2="-4.24264" stroke="grey" stroke-width="1"/>
  </symbol>
  <!-- First wheel using the defined wheel symbol -->
  <use href="#wheel" x="17" y="35" width="18" height="18" transform="translate(-9, -9)"/>
  <!-- Second wheel using the defined wheel symbol -->
  <use href="#wheel" x="88" y="35" width="18" height="18" transform="translate(-9, -9)"/>
  <!-- Headlight -->
  <path
    d="M 107.5 27
       C 107.5 21 100 21 97 21
       L 101 27
        Z"
    fill="white"
    />
  <!-- Highlight lines across doors -->
  <line x1="10" y1="15" x2="90" y2="19" stroke="#fff" stroke-width="0.5" filter="url(#blur-filter)"/>
  <line x1="28" y1="29" x2="75" y2="31" stroke="#fff" stroke-width="0.5" filter="url(#blur-filter)"/>
 <!-- Front/back door crack -->
  <line x1="46" y1="15" x2="48" y2="35" stroke="#000" stroke-width="0.5" filter="url(#blur-filter)"/>
</svg>